<?xml version="1.0" encoding="UTF-8" standalone="no"?>
<svg
   xmlns:dc="http://purl.org/dc/elements/1.1/"
   xmlns:cc="http://creativecommons.org/ns#"
   xmlns:rdf="http://www.w3.org/1999/02/22-rdf-syntax-ns#"
   xmlns:svg="http://www.w3.org/2000/svg"
   xmlns="http://www.w3.org/2000/svg"
   xmlns:sodipodi="http://sodipodi.sourceforge.net/DTD/sodipodi-0.dtd"
   xmlns:inkscape="http://www.inkscape.org/namespaces/inkscape"
   width="135"
   height="35"
   viewBox="0 0 35.71875 9.2604169"
   version="1.1"
   id="svg935"
   inkscape:version="1.0 (4035a4f, 2020-05-01)"
   sodipodi:docname="0.svg">
  <defs
     id="defs929" />
  <sodipodi:namedview
     id="base"
     pagecolor="#ffffff"
     bordercolor="#666666"
     borderopacity="1.0"
     inkscape:pageopacity="0.0"
     inkscape:pageshadow="2"
     inkscape:zoom="1.979899"
     inkscape:cx="42.959635"
     inkscape:cy="60.276207"
     inkscape:document-units="mm"
     inkscape:current-layer="layer1"
     inkscape:document-rotation="0"
     showgrid="false"
     units="px"
     inkscape:window-width="1252"
     inkscape:window-height="758"
     inkscape:window-x="26"
     inkscape:window-y="23"
     inkscape:window-maximized="0" />
  <metadata
     id="metadata932">
    <rdf:RDF>
      <cc:Work
         rdf:about="">
        <dc:format>image/svg+xml</dc:format>
        <dc:type
           rdf:resource="http://purl.org/dc/dcmitype/StillImage" />
        <dc:title />
      </cc:Work>
    </rdf:RDF>
  </metadata>
  <g
     inkscape:label="Layer 1"
     inkscape:groupmode="layer"
     id="layer1">
    <g
       transform="matrix(0.35277777,0,0,-0.35277777,-53.86211,20.310757)"
       id="g940">
      <path
         id="path246"
         style="fill:#f46e16;fill-opacity:1;fill-rule:evenodd;stroke:none;stroke-width:0.1"
         d="m 196.732,44.7891 -5.611,12.7847 h -26.713 l 5.613,-12.7847 h 26.711"
         inkscape:export-filename="/Users/amin/Desktop/00.png"
         inkscape:export-xdpi="96"
         inkscape:export-ydpi="96" />
      <path
         id="path248"
         style="fill:#272626;fill-opacity:1;fill-rule:evenodd;stroke:none;stroke-width:0.1"
         d="M 252.668,53.4641 H 164.707 V 34.9719 h 79.842 l 8.119,18.4922"
         inkscape:export-filename="/Users/amin/Desktop/00.png"
         inkscape:export-xdpi="96"
         inkscape:export-ydpi="96" />
      <path
         id="path250"
         style="fill:#fab40a;fill-opacity:1;fill-rule:evenodd;stroke:none;stroke-width:0.1"
         d="M 179.391,30.8629 H 152.68 l 11.726,26.7109 h 26.711 L 179.391,30.8629"
         inkscape:export-filename="/Users/amin/Desktop/00.png"
         inkscape:export-xdpi="96"
         inkscape:export-ydpi="96" />
      <path
         id="path252"
         style="fill:#7c7d7e;fill-opacity:1;fill-rule:nonzero;stroke:none;stroke-width:0.1"
         d="m 196.17,41.2191 -2.238,1.127 -2.246,-1.1082 0.378,2.4769 -1.748,1.7954 2.473,0.4039 1.168,2.2168 1.148,-2.2278 2.469,-0.4242 -1.763,-1.7801 0.359,-2.4797"
         inkscape:export-filename="/Users/amin/Desktop/00.png"
         inkscape:export-xdpi="96"
         inkscape:export-ydpi="96" />
      <path
         id="path254"
         style="fill:#7c7d7e;fill-opacity:1;fill-rule:nonzero;stroke:none;stroke-width:0.1"
         d="m 207.193,41.2191 -2.236,1.127 -2.248,-1.1082 0.381,2.4769 -1.748,1.7954 2.472,0.4039 1.168,2.2168 1.147,-2.2278 2.471,-0.4242 -1.764,-1.7801 0.357,-2.4797"
         inkscape:export-filename="/Users/amin/Desktop/00.png"
         inkscape:export-xdpi="96"
         inkscape:export-ydpi="96" />
      <path
         id="path256"
         style="fill:#7c7d7e;fill-opacity:1;fill-rule:nonzero;stroke:none;stroke-width:0.1"
         d="m 218.219,41.2191 -2.239,1.127 -2.248,-1.1082 0.381,2.4769 -1.748,1.7954 2.473,0.4039 1.168,2.2168 1.146,-2.2278 2.471,-0.4242 -1.764,-1.7801 0.36,-2.4797"
         inkscape:export-filename="/Users/amin/Desktop/00.png"
         inkscape:export-xdpi="96"
         inkscape:export-ydpi="96" />
      <path
         id="path258"
         style="fill:#7c7d7e;fill-opacity:1;fill-rule:nonzero;stroke:none;stroke-width:0.1"
         d="m 229.242,41.2191 -2.238,1.127 -2.246,-1.1082 0.379,2.4769 -1.746,1.7954 2.472,0.4039 1.166,2.2168 1.147,-2.2278 2.47,-0.4242 -1.763,-1.7801 0.359,-2.4797"
         inkscape:export-filename="/Users/amin/Desktop/00.png"
         inkscape:export-xdpi="96"
         inkscape:export-ydpi="96" />
      <path
         id="path260"
         style="fill:#7c7d7e;fill-opacity:1;fill-rule:nonzero;stroke:none;stroke-width:0.1"
         d="m 240.266,41.2191 -2.239,1.127 -2.246,-1.1082 0.381,2.4769 -1.748,1.7954 2.473,0.4039 1.166,2.2168 1.148,-2.2278 2.469,-0.4242 -1.762,-1.7801 0.358,-2.4797"
         inkscape:export-filename="/Users/amin/Desktop/00.png"
         inkscape:export-xdpi="96"
         inkscape:export-ydpi="96" />
      <path
         id="path262"
         style="fill:#272626;fill-opacity:1;fill-rule:nonzero;stroke:none;stroke-width:0.1"
         d="m 169.406,44.1852 v 0.0187 c 0,1.2961 -0.668,2.3582 -1.681,2.3582 -1.016,0 -1.664,-1.0332 -1.664,-2.3402 v -0.018 c 0,-1.298 0.658,-2.3598 1.681,-2.3598 1.026,0 1.664,1.043 1.664,2.3411 z m -4.539,0 v 0.0187 c 0,1.8793 1.147,3.402 2.875,3.402 1.721,0 2.858,-1.5039 2.858,-3.384 v -0.018 c 0,-1.8801 -1.147,-3.4027 -2.875,-3.4027 -1.731,0 -2.858,1.5039 -2.858,3.384"
         inkscape:export-filename="/Users/amin/Desktop/00.png"
         inkscape:export-xdpi="96"
         inkscape:export-ydpi="96" />
      <path
         id="path264"
         style="fill:#272626;fill-opacity:1;fill-rule:nonzero;stroke:none;stroke-width:0.1"
         d="m 171.588,42.2012 h 1.252 v -1.2871 h -1.252 v 1.2871"
         inkscape:export-filename="/Users/amin/Desktop/00.png"
         inkscape:export-xdpi="96"
         inkscape:export-ydpi="96" />
      <path
         id="path266"
         style="fill:#272626;fill-opacity:1;fill-rule:nonzero;stroke:none;stroke-width:0.1"
         d="m 178.367,44.1852 v 0.0187 c 0,1.2961 -0.668,2.3582 -1.681,2.3582 -1.016,0 -1.665,-1.0332 -1.665,-2.3402 v -0.018 c 0,-1.298 0.659,-2.3598 1.682,-2.3598 1.026,0 1.664,1.043 1.664,2.3411 z m -4.539,0 v 0.0187 c 0,1.8793 1.147,3.402 2.875,3.402 1.721,0 2.858,-1.5039 2.858,-3.384 v -0.018 c 0,-1.8801 -1.147,-3.4027 -2.875,-3.4027 -1.731,0 -2.858,1.5039 -2.858,3.384"
         inkscape:export-filename="/Users/amin/Desktop/00.png"
         inkscape:export-xdpi="96"
         inkscape:export-ydpi="96" />
    </g>
  </g>
</svg>
