<?xml version="1.0" encoding="UTF-8" standalone="no"?>
<svg
   xmlns:dc="http://purl.org/dc/elements/1.1/"
   xmlns:cc="http://creativecommons.org/ns#"
   xmlns:rdf="http://www.w3.org/1999/02/22-rdf-syntax-ns#"
   xmlns:svg="http://www.w3.org/2000/svg"
   xmlns="http://www.w3.org/2000/svg"
   xmlns:sodipodi="http://sodipodi.sourceforge.net/DTD/sodipodi-0.dtd"
   xmlns:inkscape="http://www.inkscape.org/namespaces/inkscape"
   width="135"
   height="35"
   viewBox="0 0 35.71875 9.2604169"
   version="1.1"
   id="svg935"
   inkscape:version="1.0 (4035a4f, 2020-05-01)"
   sodipodi:docname="1.svg">
  <defs
     id="defs929" />
  <sodipodi:namedview
     id="base"
     pagecolor="#ffffff"
     bordercolor="#666666"
     borderopacity="1.0"
     inkscape:pageopacity="0.0"
     inkscape:pageshadow="2"
     inkscape:zoom="1.979899"
     inkscape:cx="-76.238365"
     inkscape:cy="91.085859"
     inkscape:document-units="mm"
     inkscape:current-layer="layer1"
     inkscape:document-rotation="0"
     showgrid="false"
     units="px"
     inkscape:window-width="1252"
     inkscape:window-height="758"
     inkscape:window-x="0"
     inkscape:window-y="23"
     inkscape:window-maximized="0" />
  <metadata
     id="metadata932">
    <rdf:RDF>
      <cc:Work
         rdf:about="">
        <dc:format>image/svg+xml</dc:format>
        <dc:type
           rdf:resource="http://purl.org/dc/dcmitype/StillImage" />
        <dc:title />
      </cc:Work>
    </rdf:RDF>
  </metadata>
  <g
     inkscape:label="Layer 1"
     inkscape:groupmode="layer"
     id="layer1">
    <g
       transform="matrix(0.35277777,0,0,-0.35277777,-53.86211,42.748199)"
       id="g1162">
      <path
         id="path200"
         style="fill:#f46e16;fill-opacity:1;fill-rule:evenodd;stroke:none;stroke-width:0.1"
         d="m 196.732,108.392 -5.611,12.784 h -26.713 l 5.613,-12.784 h 26.711"
         inkscape:export-filename="/Users/amin/Desktop/01.png"
         inkscape:export-xdpi="96"
         inkscape:export-ydpi="96" />
      <path
         id="path202"
         style="fill:#272626;fill-opacity:1;fill-rule:evenodd;stroke:none;stroke-width:0.1"
         d="M 252.668,117.067 H 164.707 V 98.575 h 79.842 l 8.119,18.492"
         inkscape:export-filename="/Users/amin/Desktop/01.png"
         inkscape:export-xdpi="96"
         inkscape:export-ydpi="96" />
      <path
         id="path204"
         style="fill:#fab40a;fill-opacity:1;fill-rule:evenodd;stroke:none;stroke-width:0.1"
         d="M 179.391,94.4648 H 152.68 l 11.726,26.7112 h 26.711 L 179.391,94.4648"
         inkscape:export-filename="/Users/amin/Desktop/01.png"
         inkscape:export-xdpi="96"
         inkscape:export-ydpi="96" />
      <path
         id="path206"
         style="fill:#fab40a;fill-opacity:1;fill-rule:nonzero;stroke:none;stroke-width:0.1"
         d="m 196.17,104.821 -2.238,1.127 -2.246,-1.107 0.378,2.476 -1.748,1.796 2.473,0.403 1.168,2.217 1.148,-2.227 2.469,-0.424 -1.763,-1.781 0.359,-2.48"
         inkscape:export-filename="/Users/amin/Desktop/01.png"
         inkscape:export-xdpi="96"
         inkscape:export-ydpi="96" />
      <path
         id="path208"
         style="fill:#7c7d7e;fill-opacity:1;fill-rule:nonzero;stroke:none;stroke-width:0.1"
         d="m 207.193,104.821 -2.236,1.127 -2.248,-1.107 0.381,2.476 -1.748,1.796 2.472,0.403 1.168,2.217 1.147,-2.227 2.471,-0.424 -1.764,-1.781 0.357,-2.48"
         inkscape:export-filename="/Users/amin/Desktop/01.png"
         inkscape:export-xdpi="96"
         inkscape:export-ydpi="96" />
      <path
         id="path210"
         style="fill:#7c7d7e;fill-opacity:1;fill-rule:nonzero;stroke:none;stroke-width:0.1"
         d="m 218.219,104.821 -2.239,1.127 -2.248,-1.107 0.381,2.476 -1.748,1.796 2.473,0.403 1.168,2.217 1.146,-2.227 2.471,-0.424 -1.764,-1.781 0.36,-2.48"
         inkscape:export-filename="/Users/amin/Desktop/01.png"
         inkscape:export-xdpi="96"
         inkscape:export-ydpi="96" />
      <path
         id="path212"
         style="fill:#7c7d7e;fill-opacity:1;fill-rule:nonzero;stroke:none;stroke-width:0.1"
         d="m 229.242,104.821 -2.238,1.127 -2.246,-1.107 0.379,2.476 -1.746,1.796 2.472,0.403 1.166,2.217 1.147,-2.227 2.47,-0.424 -1.763,-1.781 0.359,-2.48"
         inkscape:export-filename="/Users/amin/Desktop/01.png"
         inkscape:export-xdpi="96"
         inkscape:export-ydpi="96" />
      <path
         id="path214"
         style="fill:#7c7d7e;fill-opacity:1;fill-rule:nonzero;stroke:none;stroke-width:0.1"
         d="m 240.266,104.821 -2.239,1.127 -2.246,-1.107 0.381,2.476 -1.748,1.796 2.473,0.403 1.166,2.217 1.148,-2.227 2.469,-0.424 -1.762,-1.781 0.358,-2.48"
         inkscape:export-filename="/Users/amin/Desktop/01.png"
         inkscape:export-xdpi="96"
         inkscape:export-ydpi="96" />
      <path
         id="path216"
         style="fill:#272626;fill-opacity:1;fill-rule:nonzero;stroke:none;stroke-width:0.1"
         d="m 167.451,109.968 -1.183,-0.329 -0.245,0.94 1.768,0.564 h 0.807 v -6.627 h -1.147 v 5.452"
         inkscape:export-filename="/Users/amin/Desktop/01.png"
         inkscape:export-xdpi="96"
         inkscape:export-ydpi="96" />
      <path
         id="path218"
         style="fill:#272626;fill-opacity:1;fill-rule:nonzero;stroke:none;stroke-width:0.1"
         d="m 170.141,105.804 h 1.252 v -1.288 h -1.252 v 1.288"
         inkscape:export-filename="/Users/amin/Desktop/01.png"
         inkscape:export-xdpi="96"
         inkscape:export-ydpi="96" />
      <path
         id="path220"
         style="fill:#272626;fill-opacity:1;fill-rule:nonzero;stroke:none;stroke-width:0.1"
         d="m 176.918,107.787 v 0.019 c 0,1.297 -0.666,2.359 -1.682,2.359 -1.015,0 -1.664,-1.034 -1.664,-2.34 v -0.019 c 0,-1.297 0.658,-2.359 1.684,-2.359 1.023,0 1.662,1.043 1.662,2.34 z m -4.539,0 v 0.019 c 0,1.88 1.146,3.402 2.877,3.402 1.719,0 2.857,-1.503 2.857,-3.383 v -0.019 c 0,-1.88 -1.146,-3.403 -2.877,-3.403 -1.728,0 -2.857,1.504 -2.857,3.384"
         inkscape:export-filename="/Users/amin/Desktop/01.png"
         inkscape:export-xdpi="96"
         inkscape:export-ydpi="96" />
    </g>
  </g>
</svg>
