<?xml version="1.0" encoding="UTF-8" standalone="no"?>
<svg
   xmlns:dc="http://purl.org/dc/elements/1.1/"
   xmlns:cc="http://creativecommons.org/ns#"
   xmlns:rdf="http://www.w3.org/1999/02/22-rdf-syntax-ns#"
   xmlns:svg="http://www.w3.org/2000/svg"
   xmlns="http://www.w3.org/2000/svg"
   xmlns:sodipodi="http://sodipodi.sourceforge.net/DTD/sodipodi-0.dtd"
   xmlns:inkscape="http://www.inkscape.org/namespaces/inkscape"
   width="135"
   height="35"
   viewBox="0 0 35.71875 9.2604169"
   version="1.1"
   id="svg935"
   inkscape:version="1.0 (4035a4f, 2020-05-01)"
   sodipodi:docname="2.svg">
  <defs
     id="defs929" />
  <sodipodi:namedview
     id="base"
     pagecolor="#ffffff"
     bordercolor="#666666"
     borderopacity="1.0"
     inkscape:pageopacity="0.0"
     inkscape:pageshadow="2"
     inkscape:zoom="1.979899"
     inkscape:cx="20.988817"
     inkscape:cy="91.085859"
     inkscape:document-units="mm"
     inkscape:current-layer="layer1"
     inkscape:document-rotation="0"
     showgrid="false"
     units="px"
     inkscape:window-width="1252"
     inkscape:window-height="758"
     inkscape:window-x="0"
     inkscape:window-y="23"
     inkscape:window-maximized="0" />
  <metadata
     id="metadata932">
    <rdf:RDF>
      <cc:Work
         rdf:about="">
        <dc:format>image/svg+xml</dc:format>
        <dc:type
           rdf:resource="http://purl.org/dc/dcmitype/StillImage" />
        <dc:title />
      </cc:Work>
    </rdf:RDF>
  </metadata>
  <g
     inkscape:label="Layer 1"
     inkscape:groupmode="layer"
     id="layer1">
    <g
       transform="matrix(0.35277777,0,0,-0.35277777,-53.86211,65.185924)"
       id="g1136">
      <path
         id="path154"
         style="fill:#f46e16;fill-opacity:1;fill-rule:evenodd;stroke:none;stroke-width:0.1"
         d="m 196.732,171.994 -5.611,12.785 h -26.713 l 5.613,-12.785 h 26.711"
         inkscape:export-filename="/Users/amin/Desktop/02.png"
         inkscape:export-xdpi="96"
         inkscape:export-ydpi="96" />
      <path
         id="path156"
         style="fill:#272626;fill-opacity:1;fill-rule:evenodd;stroke:none;stroke-width:0.1"
         d="m 252.668,180.669 h -87.961 v -18.492 h 79.842 l 8.119,18.492"
         inkscape:export-filename="/Users/amin/Desktop/02.png"
         inkscape:export-xdpi="96"
         inkscape:export-ydpi="96" />
      <path
         id="path158"
         style="fill:#fab40a;fill-opacity:1;fill-rule:evenodd;stroke:none;stroke-width:0.1"
         d="M 179.391,158.068 H 152.68 l 11.726,26.711 h 26.711 l -11.726,-26.711"
         inkscape:export-filename="/Users/amin/Desktop/02.png"
         inkscape:export-xdpi="96"
         inkscape:export-ydpi="96" />
      <path
         id="path160"
         style="fill:#fab40a;fill-opacity:1;fill-rule:nonzero;stroke:none;stroke-width:0.1"
         d="m 196.17,168.424 -2.238,1.127 -2.246,-1.108 0.378,2.477 -1.748,1.795 2.473,0.404 1.168,2.217 1.148,-2.228 2.469,-0.424 -1.763,-1.78 0.359,-2.48"
         inkscape:export-filename="/Users/amin/Desktop/02.png"
         inkscape:export-xdpi="96"
         inkscape:export-ydpi="96" />
      <path
         id="path162"
         style="fill:#fab40a;fill-opacity:1;fill-rule:nonzero;stroke:none;stroke-width:0.1"
         d="m 207.193,168.424 -2.236,1.127 -2.248,-1.108 0.381,2.477 -1.748,1.795 2.472,0.404 1.168,2.217 1.147,-2.228 2.471,-0.424 -1.764,-1.78 0.357,-2.48"
         inkscape:export-filename="/Users/amin/Desktop/02.png"
         inkscape:export-xdpi="96"
         inkscape:export-ydpi="96" />
      <path
         id="path164"
         style="fill:#7c7d7e;fill-opacity:1;fill-rule:nonzero;stroke:none;stroke-width:0.1"
         d="m 218.219,168.424 -2.239,1.127 -2.248,-1.108 0.381,2.477 -1.748,1.795 2.473,0.404 1.168,2.217 1.146,-2.228 2.471,-0.424 -1.764,-1.78 0.36,-2.48"
         inkscape:export-filename="/Users/amin/Desktop/02.png"
         inkscape:export-xdpi="96"
         inkscape:export-ydpi="96" />
      <path
         id="path166"
         style="fill:#7c7d7e;fill-opacity:1;fill-rule:nonzero;stroke:none;stroke-width:0.1"
         d="m 229.242,168.424 -2.238,1.127 -2.246,-1.108 0.379,2.477 -1.746,1.795 2.472,0.404 1.166,2.217 1.147,-2.228 2.47,-0.424 -1.763,-1.78 0.359,-2.48"
         inkscape:export-filename="/Users/amin/Desktop/02.png"
         inkscape:export-xdpi="96"
         inkscape:export-ydpi="96" />
      <path
         id="path168"
         style="fill:#7c7d7e;fill-opacity:1;fill-rule:nonzero;stroke:none;stroke-width:0.1"
         d="m 240.266,168.424 -2.239,1.127 -2.246,-1.108 0.381,2.477 -1.748,1.795 2.473,0.404 1.166,2.217 1.148,-2.228 2.469,-0.424 -1.762,-1.78 0.358,-2.48"
         inkscape:export-filename="/Users/amin/Desktop/02.png"
         inkscape:export-xdpi="96"
         inkscape:export-ydpi="96" />
      <path
         id="path170"
         style="fill:#272626;fill-opacity:1;fill-rule:nonzero;stroke:none;stroke-width:0.1"
         d="m 165.219,169.03 2.265,1.927 c 0.903,0.762 1.231,1.185 1.231,1.777 0,0.648 -0.461,1.024 -1.063,1.024 -0.601,0 -1.013,-0.329 -1.521,-0.987 l -0.818,0.64 c 0.63,0.883 1.25,1.381 2.425,1.381 1.287,0 2.17,-0.79 2.17,-1.964 v -0.019 c 0,-1.034 -0.545,-1.598 -1.709,-2.547 l -1.353,-1.128 h 3.129 v -1.015 h -4.756 v 0.911"
         inkscape:export-filename="/Users/amin/Desktop/02.png"
         inkscape:export-xdpi="96"
         inkscape:export-ydpi="96" />
      <path
         id="path172"
         style="fill:#272626;fill-opacity:1;fill-rule:nonzero;stroke:none;stroke-width:0.1"
         d="m 171.16,169.406 h 1.252 v -1.287 h -1.252 v 1.287"
         inkscape:export-filename="/Users/amin/Desktop/02.png"
         inkscape:export-xdpi="96"
         inkscape:export-ydpi="96" />
      <path
         id="path174"
         style="fill:#272626;fill-opacity:1;fill-rule:nonzero;stroke:none;stroke-width:0.1"
         d="m 177.938,171.39 v 0.019 c 0,1.297 -0.667,2.359 -1.682,2.359 -1.016,0 -1.664,-1.034 -1.664,-2.341 v -0.018 c 0,-1.298 0.658,-2.36 1.683,-2.36 1.024,0 1.663,1.043 1.663,2.341 z m -4.54,0 v 0.019 c 0,1.88 1.147,3.402 2.877,3.402 1.719,0 2.858,-1.504 2.858,-3.384 v -0.018 c 0,-1.88 -1.147,-3.403 -2.877,-3.403 -1.729,0 -2.858,1.504 -2.858,3.384"
         inkscape:export-filename="/Users/amin/Desktop/02.png"
         inkscape:export-xdpi="96"
         inkscape:export-ydpi="96" />
    </g>
  </g>
</svg>
