<?xml version="1.0" encoding="UTF-8" standalone="no"?>
<svg
   xmlns:dc="http://purl.org/dc/elements/1.1/"
   xmlns:cc="http://creativecommons.org/ns#"
   xmlns:rdf="http://www.w3.org/1999/02/22-rdf-syntax-ns#"
   xmlns:svg="http://www.w3.org/2000/svg"
   xmlns="http://www.w3.org/2000/svg"
   xmlns:sodipodi="http://sodipodi.sourceforge.net/DTD/sodipodi-0.dtd"
   xmlns:inkscape="http://www.inkscape.org/namespaces/inkscape"
   width="135"
   height="35"
   viewBox="0 0 35.71875 9.2604169"
   version="1.1"
   id="svg935"
   inkscape:version="1.0 (4035a4f, 2020-05-01)"
   sodipodi:docname="3.svg">
  <defs
     id="defs929" />
  <sodipodi:namedview
     id="base"
     pagecolor="#ffffff"
     bordercolor="#666666"
     borderopacity="1.0"
     inkscape:pageopacity="0.0"
     inkscape:pageshadow="2"
     inkscape:zoom="1.979899"
     inkscape:cx="20.988817"
     inkscape:cy="91.085859"
     inkscape:document-units="mm"
     inkscape:current-layer="layer1"
     inkscape:document-rotation="0"
     showgrid="false"
     units="px"
     inkscape:window-width="1252"
     inkscape:window-height="758"
     inkscape:window-x="0"
     inkscape:window-y="23"
     inkscape:window-maximized="0" />
  <metadata
     id="metadata932">
    <rdf:RDF>
      <cc:Work
         rdf:about="">
        <dc:format>image/svg+xml</dc:format>
        <dc:type
           rdf:resource="http://purl.org/dc/dcmitype/StillImage" />
        <dc:title />
      </cc:Work>
    </rdf:RDF>
  </metadata>
  <g
     inkscape:label="Layer 1"
     inkscape:groupmode="layer"
     id="layer1">
    <g
       transform="matrix(0.35277777,0,0,-0.35277777,-9.7647828,31.529513)"
       id="g1149">
      <path
         id="path108"
         style="fill:#f46e16;fill-opacity:1;fill-rule:evenodd;stroke:none;stroke-width:0.1"
         d="M 71.7324,76.5898 66.1211,89.375 H 39.4082 l 5.6133,-12.7852 h 26.7109"
         inkscape:export-filename="/Users/amin/Desktop/03.png"
         inkscape:export-xdpi="96"
         inkscape:export-ydpi="96" />
      <path
         id="path110"
         style="fill:#272626;fill-opacity:1;fill-rule:evenodd;stroke:none;stroke-width:0.1"
         d="M 127.668,85.266 H 39.707 V 66.773 h 79.842 l 8.119,18.493"
         inkscape:export-filename="/Users/amin/Desktop/03.png"
         inkscape:export-xdpi="96"
         inkscape:export-ydpi="96" />
      <path
         id="path112"
         style="fill:#fab40a;fill-opacity:1;fill-rule:evenodd;stroke:none;stroke-width:0.1"
         d="M 54.3906,62.6641 H 27.6797 L 39.4063,89.375 H 66.1172 L 54.3906,62.6641"
         inkscape:export-filename="/Users/amin/Desktop/03.png"
         inkscape:export-xdpi="96"
         inkscape:export-ydpi="96" />
      <path
         id="path114"
         style="fill:#fab40a;fill-opacity:1;fill-rule:nonzero;stroke:none;stroke-width:0.1"
         d="m 71.1699,73.0199 -2.2383,1.127 -2.2461,-1.1071 0.379,2.4762 -1.7481,1.7949 2.4727,0.4039 1.1679,2.2172 1.1485,-2.2269 2.4687,-0.425 -1.7637,-1.7801 0.3594,-2.4801"
         inkscape:export-filename="/Users/amin/Desktop/03.png"
         inkscape:export-xdpi="96"
         inkscape:export-ydpi="96" />
      <path
         id="path116"
         style="fill:#fab40a;fill-opacity:1;fill-rule:nonzero;stroke:none;stroke-width:0.1"
         d="m 82.1934,73.0199 -2.2364,1.127 -2.248,-1.1071 0.3808,2.4762 -1.748,1.7949 2.4727,0.4039 1.1679,2.2172 1.1465,-2.2269 2.4707,-0.425 -1.7637,-1.7801 0.3575,-2.4801"
         inkscape:export-filename="/Users/amin/Desktop/03.png"
         inkscape:export-xdpi="96"
         inkscape:export-ydpi="96" />
      <path
         id="path118"
         style="fill:#fab40a;fill-opacity:1;fill-rule:nonzero;stroke:none;stroke-width:0.1"
         d="m 93.2188,73.0199 -2.2383,1.127 -2.2481,-1.1071 0.3809,2.4762 -1.7481,1.7949 2.4727,0.4039 1.168,2.2172 1.1464,-2.2269 2.4707,-0.425 -1.7636,-1.7801 0.3594,-2.4801"
         inkscape:export-filename="/Users/amin/Desktop/03.png"
         inkscape:export-xdpi="96"
         inkscape:export-ydpi="96" />
      <path
         id="path120"
         style="fill:#7c7d7e;fill-opacity:1;fill-rule:nonzero;stroke:none;stroke-width:0.1"
         d="m 104.242,73.0199 -2.238,1.127 -2.2462,-1.1071 0.3792,2.4762 -1.7464,1.7949 2.4724,0.4039 1.166,2.2172 1.147,-2.2269 2.47,-0.425 -1.763,-1.7801 0.359,-2.4801"
         inkscape:export-filename="/Users/amin/Desktop/03.png"
         inkscape:export-xdpi="96"
         inkscape:export-ydpi="96" />
      <path
         id="path122"
         style="fill:#7c7d7e;fill-opacity:1;fill-rule:nonzero;stroke:none;stroke-width:0.1"
         d="m 115.266,73.0199 -2.239,1.127 -2.246,-1.1071 0.381,2.4762 -1.748,1.7949 2.473,0.4039 1.166,2.2172 1.148,-2.2269 2.469,-0.425 -1.762,-1.7801 0.358,-2.4801"
         inkscape:export-filename="/Users/amin/Desktop/03.png"
         inkscape:export-xdpi="96"
         inkscape:export-ydpi="96" />
      <path
         id="path124"
         style="fill:#272626;fill-opacity:1;fill-rule:nonzero;stroke:none;stroke-width:0.1"
         d="m 40.1387,73.7582 0.8086,0.752 c 0.4707,-0.5543 0.9961,-0.8653 1.7304,-0.8653 0.6485,0 1.1368,0.3949 1.1368,0.9973 v 0.0187 c 0,0.6481 -0.5918,1.0153 -1.5137,1.0153 h -0.5352 l -0.1894,0.7226 1.7773,1.8903 h -2.8476 v 1.005 h 4.3515 v -0.864 L 43.0254,76.55 c 0.9961,-0.132 1.9355,-0.6301 1.9355,-1.852 v -0.0191 c 0,-1.2117 -0.9394,-2.0769 -2.3027,-2.0769 -1.1465,0 -1.9648,0.48 -2.5195,1.1562"
         inkscape:export-filename="/Users/amin/Desktop/03.png"
         inkscape:export-xdpi="96"
         inkscape:export-ydpi="96" />
      <path
         id="path126"
         style="fill:#272626;fill-opacity:1;fill-rule:nonzero;stroke:none;stroke-width:0.1"
         d="m 46.1836,74.002 h 1.2519 v -1.2872 h -1.2519 v 1.2872"
         inkscape:export-filename="/Users/amin/Desktop/03.png"
         inkscape:export-xdpi="96"
         inkscape:export-ydpi="96" />
      <path
         id="path128"
         style="fill:#272626;fill-opacity:1;fill-rule:nonzero;stroke:none;stroke-width:0.1"
         d="m 52.9629,75.9859 v 0.0192 c 0,1.2969 -0.668,2.359 -1.6816,2.359 -1.0157,0 -1.6641,-1.034 -1.6641,-2.3411 v -0.0179 c 0,-1.2981 0.6582,-2.3602 1.6816,-2.3602 1.0254,0 1.6641,1.043 1.6641,2.341 z m -4.5391,0 v 0.0192 c 0,1.8801 1.1465,3.4019 2.875,3.4019 1.7207,0 2.8575,-1.5039 2.8575,-3.384 v -0.0179 c 0,-1.8801 -1.1465,-3.4031 -2.875,-3.4031 -1.7305,0 -2.8575,1.5039 -2.8575,3.3839"
         inkscape:export-filename="/Users/amin/Desktop/03.png"
         inkscape:export-xdpi="96"
         inkscape:export-ydpi="96" />
    </g>
  </g>
</svg>
