<?xml version="1.0" encoding="UTF-8" standalone="no"?>
<svg
   xmlns:dc="http://purl.org/dc/elements/1.1/"
   xmlns:cc="http://creativecommons.org/ns#"
   xmlns:rdf="http://www.w3.org/1999/02/22-rdf-syntax-ns#"
   xmlns:svg="http://www.w3.org/2000/svg"
   xmlns="http://www.w3.org/2000/svg"
   xmlns:sodipodi="http://sodipodi.sourceforge.net/DTD/sodipodi-0.dtd"
   xmlns:inkscape="http://www.inkscape.org/namespaces/inkscape"
   width="135"
   height="35"
   viewBox="0 0 35.71875 9.2604169"
   version="1.1"
   id="svg935"
   inkscape:version="1.0 (4035a4f, 2020-05-01)"
   sodipodi:docname="4.svg">
  <defs
     id="defs929" />
  <sodipodi:namedview
     id="base"
     pagecolor="#ffffff"
     bordercolor="#666666"
     borderopacity="1.0"
     inkscape:pageopacity="0.0"
     inkscape:pageshadow="2"
     inkscape:zoom="1.979899"
     inkscape:cx="20.988817"
     inkscape:cy="91.085859"
     inkscape:document-units="mm"
     inkscape:current-layer="layer1"
     inkscape:document-rotation="0"
     showgrid="false"
     units="px"
     inkscape:window-width="1252"
     inkscape:window-height="758"
     inkscape:window-x="0"
     inkscape:window-y="23"
     inkscape:window-maximized="0" />
  <metadata
     id="metadata932">
    <rdf:RDF>
      <cc:Work
         rdf:about="">
        <dc:format>image/svg+xml</dc:format>
        <dc:type
           rdf:resource="http://purl.org/dc/dcmitype/StillImage" />
        <dc:title />
      </cc:Work>
    </rdf:RDF>
  </metadata>
  <g
     inkscape:label="Layer 1"
     inkscape:groupmode="layer"
     id="layer1">
    <g
       transform="matrix(0.35277777,0,0,-0.35277777,-9.7647828,53.967238)"
       id="g1175">
      <path
         id="path62"
         style="fill:#f46e16;fill-opacity:1;fill-rule:evenodd;stroke:none;stroke-width:0.1"
         d="m 71.7324,140.193 -5.6113,12.785 H 39.4082 l 5.6133,-12.785 h 26.7109"
         inkscape:export-filename="/Users/amin/Desktop/04.png"
         inkscape:export-xdpi="96"
         inkscape:export-ydpi="96" />
      <path
         id="path64"
         style="fill:#272626;fill-opacity:1;fill-rule:evenodd;stroke:none;stroke-width:0.1"
         d="M 127.668,148.868 H 39.707 v -18.492 h 79.842 l 8.119,18.492"
         inkscape:export-filename="/Users/amin/Desktop/04.png"
         inkscape:export-xdpi="96"
         inkscape:export-ydpi="96" />
      <path
         id="path66"
         style="fill:#fab40a;fill-opacity:1;fill-rule:evenodd;stroke:none;stroke-width:0.1"
         d="M 54.3906,126.267 H 27.6797 l 11.7266,26.711 H 66.1172 L 54.3906,126.267"
         inkscape:export-filename="/Users/amin/Desktop/04.png"
         inkscape:export-xdpi="96"
         inkscape:export-ydpi="96" />
      <path
         id="path68"
         style="fill:#fab40a;fill-opacity:1;fill-rule:nonzero;stroke:none;stroke-width:0.1"
         d="m 71.1699,136.623 -2.2383,1.126 -2.2461,-1.107 0.379,2.477 -1.7481,1.795 2.4727,0.403 1.1679,2.218 1.1485,-2.228 2.4687,-0.424 -1.7637,-1.78 0.3594,-2.48"
         inkscape:export-filename="/Users/amin/Desktop/04.png"
         inkscape:export-xdpi="96"
         inkscape:export-ydpi="96" />
      <path
         id="path70"
         style="fill:#fab40a;fill-opacity:1;fill-rule:nonzero;stroke:none;stroke-width:0.1"
         d="m 82.1934,136.623 -2.2364,1.126 -2.248,-1.107 0.3808,2.477 -1.748,1.795 2.4727,0.403 1.1679,2.218 1.1465,-2.228 2.4707,-0.424 -1.7637,-1.78 0.3575,-2.48"
         inkscape:export-filename="/Users/amin/Desktop/04.png"
         inkscape:export-xdpi="96"
         inkscape:export-ydpi="96" />
      <path
         id="path72"
         style="fill:#fab40a;fill-opacity:1;fill-rule:nonzero;stroke:none;stroke-width:0.1"
         d="m 93.2188,136.623 -2.2383,1.126 -2.2481,-1.107 0.3809,2.477 -1.7481,1.795 2.4727,0.403 1.168,2.218 1.1464,-2.228 2.4707,-0.424 -1.7636,-1.78 0.3594,-2.48"
         inkscape:export-filename="/Users/amin/Desktop/04.png"
         inkscape:export-xdpi="96"
         inkscape:export-ydpi="96" />
      <path
         id="path74"
         style="fill:#fab40a;fill-opacity:1;fill-rule:nonzero;stroke:none;stroke-width:0.1"
         d="m 104.242,136.623 -2.238,1.126 -2.2462,-1.107 0.3792,2.477 -1.7464,1.795 2.4724,0.403 1.166,2.218 1.147,-2.228 2.47,-0.424 -1.763,-1.78 0.359,-2.48"
         inkscape:export-filename="/Users/amin/Desktop/04.png"
         inkscape:export-xdpi="96"
         inkscape:export-ydpi="96" />
      <path
         id="path76"
         style="fill:#7c7d7e;fill-opacity:1;fill-rule:nonzero;stroke:none;stroke-width:0.1"
         d="m 115.266,136.623 -2.239,1.126 -2.246,-1.107 0.381,2.477 -1.748,1.795 2.473,0.403 1.166,2.218 1.148,-2.228 2.469,-0.424 -1.762,-1.78 0.358,-2.48"
         inkscape:export-filename="/Users/amin/Desktop/04.png"
         inkscape:export-xdpi="96"
         inkscape:export-ydpi="96" />
      <path
         id="path78"
         style="fill:#272626;fill-opacity:1;fill-rule:nonzero;stroke:none;stroke-width:0.1"
         d="m 43.3105,138.742 v 2.604 l -2.1601,-2.604 z m 0,-0.949 h -3.3164 l -0.2168,0.827 3.6563,4.324 h 0.9863 v -4.202 h 0.9414 v -0.949 h -0.9414 v -1.476 h -1.1094 v 1.476"
         inkscape:export-filename="/Users/amin/Desktop/04.png"
         inkscape:export-xdpi="96"
         inkscape:export-ydpi="96" />
      <path
         id="path80"
         style="fill:#272626;fill-opacity:1;fill-rule:nonzero;stroke:none;stroke-width:0.1"
         d="m 46.4805,137.605 h 1.2519 v -1.288 h -1.2519 v 1.288"
         inkscape:export-filename="/Users/amin/Desktop/04.png"
         inkscape:export-xdpi="96"
         inkscape:export-ydpi="96" />
      <path
         id="path82"
         style="fill:#272626;fill-opacity:1;fill-rule:nonzero;stroke:none;stroke-width:0.1"
         d="m 53.2578,139.588 v 0.019 c 0,1.297 -0.666,2.359 -1.6816,2.359 -1.0157,0 -1.6641,-1.033 -1.6641,-2.34 v -0.019 c 0,-1.297 0.6582,-2.359 1.6836,-2.359 1.0234,0 1.6621,1.043 1.6621,2.34 z m -4.539,0 v 0.019 c 0,1.88 1.1464,3.403 2.8769,3.403 1.7188,0 2.8574,-1.504 2.8574,-3.384 v -0.019 c 0,-1.879 -1.1465,-3.402 -2.8769,-3.402 -1.7285,0 -2.8574,1.503 -2.8574,3.383"
         inkscape:export-filename="/Users/amin/Desktop/04.png"
         inkscape:export-xdpi="96"
         inkscape:export-ydpi="96" />
    </g>
  </g>
</svg>
