<?xml version="1.0" encoding="UTF-8" standalone="no"?>
<svg
   xmlns:dc="http://purl.org/dc/elements/1.1/"
   xmlns:cc="http://creativecommons.org/ns#"
   xmlns:rdf="http://www.w3.org/1999/02/22-rdf-syntax-ns#"
   xmlns:svg="http://www.w3.org/2000/svg"
   xmlns="http://www.w3.org/2000/svg"
   xmlns:sodipodi="http://sodipodi.sourceforge.net/DTD/sodipodi-0.dtd"
   xmlns:inkscape="http://www.inkscape.org/namespaces/inkscape"
   sodipodi:docname="5.svg"
   inkscape:version="1.0 (4035a4f, 2020-05-01)"
   id="svg935"
   version="1.1"
   viewBox="0 0 35.71875 9.2604169"
   height="35"
   width="135">
  <defs
     id="defs929" />
  <sodipodi:namedview
     inkscape:window-maximized="0"
     inkscape:window-y="25"
     inkscape:window-x="0"
     inkscape:window-height="758"
     inkscape:window-width="1252"
     units="px"
     showgrid="false"
     inkscape:document-rotation="0"
     inkscape:current-layer="layer1"
     inkscape:document-units="mm"
     inkscape:cy="91.085859"
     inkscape:cx="20.988817"
     inkscape:zoom="1.979899"
     inkscape:pageshadow="2"
     inkscape:pageopacity="0.0"
     borderopacity="1.0"
     bordercolor="#666666"
     pagecolor="#ffffff"
     id="base" />
  <metadata
     id="metadata932">
    <rdf:RDF>
      <cc:Work
         rdf:about="">
        <dc:format>image/svg+xml</dc:format>
        <dc:type
           rdf:resource="http://purl.org/dc/dcmitype/StillImage" />
        <dc:title></dc:title>
      </cc:Work>
    </rdf:RDF>
  </metadata>
  <g
     id="layer1"
     inkscape:groupmode="layer"
     inkscape:label="Layer 1">
    <g
       inkscape:export-ydpi="96"
       inkscape:export-xdpi="96"
       inkscape:export-filename="/Users/amin/Desktop/05.png"
       transform="matrix(0.18101913,0,0,-0.17567615,-8.3791322,44.892812)"
       id="g1123">
      <path
         id="path16"
         style="fill:#f46e16;fill-opacity:1;fill-rule:evenodd;stroke:none;stroke-width:0.1"
         d="m 134.949,229.684 -11.076,25.23 H 71.1582 l 11.0781,-25.23 h 52.7127" />
      <path
         id="path18"
         style="fill:#272626;fill-opacity:1;fill-rule:evenodd;stroke:none;stroke-width:0.1"
         d="M 245.334,246.804 H 71.748 v -36.493 h 157.565 l 16.021,36.493" />
      <path
         id="path20"
         style="fill:#fab40a;fill-opacity:1;fill-rule:evenodd;stroke:none;stroke-width:0.1"
         d="M 100.727,202.201 H 48.0137 l 23.1406,52.713 h 52.7127 l -23.14,-52.713" />
      <path
         id="path22"
         style="fill:#fab40a;fill-opacity:1;fill-rule:nonzero;stroke:none;stroke-width:0.1"
         d="m 133.84,222.638 -4.418,2.225 -4.434,-2.186 0.748,4.887 -3.449,3.543 4.881,0.796 2.305,4.376 2.263,-4.396 4.875,-0.838 -3.48,-3.513 0.709,-4.894" />
      <path
         id="path24"
         style="fill:#fab40a;fill-opacity:1;fill-rule:nonzero;stroke:none;stroke-width:0.1"
         d="m 155.594,222.638 -4.416,2.225 -4.434,-2.186 0.75,4.887 -3.451,3.543 4.881,0.796 2.305,4.376 2.261,-4.396 4.877,-0.838 -3.48,-3.513 0.707,-4.894" />
      <path
         id="path26"
         style="fill:#fab40a;fill-opacity:1;fill-rule:nonzero;stroke:none;stroke-width:0.1"
         d="m 177.35,222.638 -4.416,2.225 -4.436,-2.186 0.752,4.887 -3.449,3.543 4.879,0.796 2.302,4.376 2.264,-4.396 4.875,-0.838 -3.48,-3.513 0.709,-4.894" />
      <path
         id="path28"
         style="fill:#fab40a;fill-opacity:1;fill-rule:nonzero;stroke:none;stroke-width:0.1"
         d="m 199.105,222.638 -4.416,2.225 -4.435,-2.186 0.75,4.887 -3.447,3.543 4.879,0.796 2.302,4.376 2.264,-4.396 4.875,-0.838 -3.481,-3.513 0.709,-4.894" />
      <path
         id="path30"
         style="fill:#fab40a;fill-opacity:1;fill-rule:nonzero;stroke:none;stroke-width:0.1"
         d="m 220.859,222.638 -4.416,2.225 -4.433,-2.186 0.75,4.887 -3.449,3.543 4.878,0.796 2.303,4.376 2.268,-4.396 4.871,-0.838 -3.479,-3.513 0.707,-4.894" />
      <path
         id="path32"
         style="fill:#272626;fill-opacity:1;fill-rule:nonzero;stroke:none;stroke-width:0.1"
         d="m 72.6367,223.799 1.4102,1.651 c 1.039,-0.965 2.1328,-1.558 3.3398,-1.558 1.5586,0 2.5781,0.89 2.5781,2.245 v 0.037 c 0,1.317 -1.1132,2.152 -2.6894,2.152 -0.9277,0 -1.7266,-0.26 -2.3945,-0.575 l -1.3731,0.909 0.3711,6.364 h 7.7559 v -2.022 h -5.7891 l -0.2031,-3.043 c 0.6113,0.223 1.1875,0.371 2.0586,0.371 2.5234,0 4.5097,-1.336 4.5097,-4.082 v -0.037 c 0,-2.654 -1.9296,-4.397 -4.8066,-4.397 -1.9844,0 -3.543,0.797 -4.7676,1.985" />
      <path
         id="path34"
         style="fill:#272626;fill-opacity:1;fill-rule:nonzero;stroke:none;stroke-width:0.1"
         d="m 84.5664,224.578 h 2.4688 v -2.542 h -2.4688 v 2.542" />
      <path
         id="path36"
         style="fill:#272626;fill-opacity:1;fill-rule:nonzero;stroke:none;stroke-width:0.1"
         d="m 97.9453,228.493 v 0.037 c 0,2.561 -1.3164,4.658 -3.3203,4.658 -2.0039,0 -3.2852,-2.042 -3.2852,-4.62 v -0.038 c 0,-2.56 1.2989,-4.657 3.3223,-4.657 2.0215,0 3.2832,2.059 3.2832,4.62 z m -8.9609,0 v 0.037 c 0,3.711 2.2636,6.717 5.6777,6.717 3.3945,0 5.6409,-2.969 5.6409,-6.679 v -0.038 c 0,-3.711 -2.2639,-6.716 -5.678,-6.716 -3.4141,0 -5.6406,2.968 -5.6406,6.679" />
    </g>
  </g>
</svg>
