<?xml version="1.0" encoding="UTF-8" standalone="no"?>
<svg
   xmlns:dc="http://purl.org/dc/elements/1.1/"
   xmlns:cc="http://creativecommons.org/ns#"
   xmlns:rdf="http://www.w3.org/1999/02/22-rdf-syntax-ns#"
   xmlns:svg="http://www.w3.org/2000/svg"
   xmlns="http://www.w3.org/2000/svg"
   xmlns:sodipodi="http://sodipodi.sourceforge.net/DTD/sodipodi-0.dtd"
   xmlns:inkscape="http://www.inkscape.org/namespaces/inkscape"
   inkscape:version="1.0 (4035a4f, 2020-05-01)"
   sodipodi:docname="6183.svg"
   viewBox="0 0 384 384"
   height="384"
   width="384"
   xml:space="preserve"
   id="svg2"
   version="1.1"><metadata
     id="metadata8"><rdf:RDF><cc:Work
         rdf:about=""><dc:format>image/svg+xml</dc:format><dc:type
           rdf:resource="http://purl.org/dc/dcmitype/StillImage" /></cc:Work></rdf:RDF></metadata><defs
     id="defs6" /><sodipodi:namedview
     inkscape:current-layer="g10"
     inkscape:window-maximized="1"
     inkscape:window-y="23"
     inkscape:window-x="0"
     inkscape:cy="244.0678"
     inkscape:cx="192"
     inkscape:zoom="1.5364583"
     showgrid="false"
     inkscape:document-rotation="0"
     id="namedview4"
     inkscape:window-height="758"
     inkscape:window-width="1440"
     inkscape:pageshadow="2"
     inkscape:pageopacity="0"
     guidetolerance="10"
     gridtolerance="10"
     objecttolerance="10"
     borderopacity="1"
     bordercolor="#666666"
     pagecolor="#ffffff" /><g
     transform="matrix(1.3333333,0,0,-1.3333333,0,384)"
     inkscape:label="ink_ext_XXXXXX"
     inkscape:groupmode="layer"
     id="g10"><g
       inkscape:export-ydpi="96"
       inkscape:export-xdpi="96"
       inkscape:export-filename="/Users/amin/Desktop/05.png"
       transform="matrix(0.50552327,0,0,0.50552327,23.741658,126.04904)"
       id="g1123"><path
         id="path16"
         style="fill:#f46e16;fill-opacity:1;fill-rule:evenodd;stroke:none;stroke-width:0.1"
         d="m 134.949,229.684 -11.076,25.23 H 71.1582 l 11.0781,-25.23 h 52.7127" /><path
         id="path18"
         style="fill:#272626;fill-opacity:1;fill-rule:evenodd;stroke:none;stroke-width:0.1"
         d="M 245.334,246.804 H 71.748 v -36.493 h 157.565 l 16.021,36.493" /><path
         id="path20"
         style="fill:#fab40a;fill-opacity:1;fill-rule:evenodd;stroke:none;stroke-width:0.1"
         d="M 100.727,202.201 H 48.0137 l 23.1406,52.713 h 52.7127 l -23.14,-52.713" /><path
         id="path22"
         style="fill:#fab40a;fill-opacity:1;fill-rule:nonzero;stroke:none;stroke-width:0.1"
         d="m 133.84,222.638 -4.418,2.225 -4.434,-2.186 0.748,4.887 -3.449,3.543 4.881,0.796 2.305,4.376 2.263,-4.396 4.875,-0.838 -3.48,-3.513 0.709,-4.894" /><path
         id="path24"
         style="fill:#fab40a;fill-opacity:1;fill-rule:nonzero;stroke:none;stroke-width:0.1"
         d="m 155.594,222.638 -4.416,2.225 -4.434,-2.186 0.75,4.887 -3.451,3.543 4.881,0.796 2.305,4.376 2.261,-4.396 4.877,-0.838 -3.48,-3.513 0.707,-4.894" /><path
         id="path26"
         style="fill:#fab40a;fill-opacity:1;fill-rule:nonzero;stroke:none;stroke-width:0.1"
         d="m 177.35,222.638 -4.416,2.225 -4.436,-2.186 0.752,4.887 -3.449,3.543 4.879,0.796 2.302,4.376 2.264,-4.396 4.875,-0.838 -3.48,-3.513 0.709,-4.894" /><path
         id="path28"
         style="fill:#fab40a;fill-opacity:1;fill-rule:nonzero;stroke:none;stroke-width:0.1"
         d="m 199.105,222.638 -4.416,2.225 -4.435,-2.186 0.75,4.887 -3.447,3.543 4.879,0.796 2.302,4.376 2.264,-4.396 4.875,-0.838 -3.481,-3.513 0.709,-4.894" /><path
         id="path30"
         style="fill:#fab40a;fill-opacity:1;fill-rule:nonzero;stroke:none;stroke-width:0.1"
         d="m 220.859,222.638 -4.416,2.225 -4.433,-2.186 0.75,4.887 -3.449,3.543 4.878,0.796 2.303,4.376 2.268,-4.396 4.871,-0.838 -3.479,-3.513 0.707,-4.894" /><path
         id="path32"
         style="fill:#272626;fill-opacity:1;fill-rule:nonzero;stroke:none;stroke-width:0.1"
         d="m 72.6367,223.799 1.4102,1.651 c 1.039,-0.965 2.1328,-1.558 3.3398,-1.558 1.5586,0 2.5781,0.89 2.5781,2.245 v 0.037 c 0,1.317 -1.1132,2.152 -2.6894,2.152 -0.9277,0 -1.7266,-0.26 -2.3945,-0.575 l -1.3731,0.909 0.3711,6.364 h 7.7559 v -2.022 h -5.7891 l -0.2031,-3.043 c 0.6113,0.223 1.1875,0.371 2.0586,0.371 2.5234,0 4.5097,-1.336 4.5097,-4.082 v -0.037 c 0,-2.654 -1.9296,-4.397 -4.8066,-4.397 -1.9844,0 -3.543,0.797 -4.7676,1.985" /><path
         id="path34"
         style="fill:#272626;fill-opacity:1;fill-rule:nonzero;stroke:none;stroke-width:0.1"
         d="m 84.5664,224.578 h 2.4688 v -2.542 h -2.4688 v 2.542" /><path
         id="path36"
         style="fill:#272626;fill-opacity:1;fill-rule:nonzero;stroke:none;stroke-width:0.1"
         d="m 97.9453,228.493 v 0.037 c 0,2.561 -1.3164,4.658 -3.3203,4.658 -2.0039,0 -3.2852,-2.042 -3.2852,-4.62 v -0.038 c 0,-2.56 1.2989,-4.657 3.3223,-4.657 2.0215,0 3.2832,2.059 3.2832,4.62 z m -8.9609,0 v 0.037 c 0,3.711 2.2636,6.717 5.6777,6.717 3.3945,0 5.6409,-2.969 5.6409,-6.679 v -0.038 c 0,-3.711 -2.2639,-6.716 -5.678,-6.716 -3.4141,0 -5.6406,2.968 -5.6406,6.679" /></g><g
       id="g1175"><path
         id="path62"
         style="fill:#f46e16;fill-opacity:1;fill-rule:evenodd;stroke:none;stroke-width:0.1"
         d="m 71.7324,140.193 -5.6113,12.785 H 39.4082 l 5.6133,-12.785 h 26.7109"
         inkscape:export-filename="/Users/amin/Desktop/04.png"
         inkscape:export-xdpi="96"
         inkscape:export-ydpi="96" /><path
         id="path64"
         style="fill:#272626;fill-opacity:1;fill-rule:evenodd;stroke:none;stroke-width:0.1"
         d="M 127.668,148.868 H 39.707 v -18.492 h 79.842 l 8.119,18.492"
         inkscape:export-filename="/Users/amin/Desktop/04.png"
         inkscape:export-xdpi="96"
         inkscape:export-ydpi="96" /><path
         id="path66"
         style="fill:#fab40a;fill-opacity:1;fill-rule:evenodd;stroke:none;stroke-width:0.1"
         d="M 54.3906,126.267 H 27.6797 l 11.7266,26.711 H 66.1172 L 54.3906,126.267"
         inkscape:export-filename="/Users/amin/Desktop/04.png"
         inkscape:export-xdpi="96"
         inkscape:export-ydpi="96" /><path
         id="path68"
         style="fill:#fab40a;fill-opacity:1;fill-rule:nonzero;stroke:none;stroke-width:0.1"
         d="m 71.1699,136.623 -2.2383,1.126 -2.2461,-1.107 0.379,2.477 -1.7481,1.795 2.4727,0.403 1.1679,2.218 1.1485,-2.228 2.4687,-0.424 -1.7637,-1.78 0.3594,-2.48"
         inkscape:export-filename="/Users/amin/Desktop/04.png"
         inkscape:export-xdpi="96"
         inkscape:export-ydpi="96" /><path
         id="path70"
         style="fill:#fab40a;fill-opacity:1;fill-rule:nonzero;stroke:none;stroke-width:0.1"
         d="m 82.1934,136.623 -2.2364,1.126 -2.248,-1.107 0.3808,2.477 -1.748,1.795 2.4727,0.403 1.1679,2.218 1.1465,-2.228 2.4707,-0.424 -1.7637,-1.78 0.3575,-2.48"
         inkscape:export-filename="/Users/amin/Desktop/04.png"
         inkscape:export-xdpi="96"
         inkscape:export-ydpi="96" /><path
         id="path72"
         style="fill:#fab40a;fill-opacity:1;fill-rule:nonzero;stroke:none;stroke-width:0.1"
         d="m 93.2188,136.623 -2.2383,1.126 -2.2481,-1.107 0.3809,2.477 -1.7481,1.795 2.4727,0.403 1.168,2.218 1.1464,-2.228 2.4707,-0.424 -1.7636,-1.78 0.3594,-2.48"
         inkscape:export-filename="/Users/amin/Desktop/04.png"
         inkscape:export-xdpi="96"
         inkscape:export-ydpi="96" /><path
         id="path74"
         style="fill:#fab40a;fill-opacity:1;fill-rule:nonzero;stroke:none;stroke-width:0.1"
         d="m 104.242,136.623 -2.238,1.126 -2.2462,-1.107 0.3792,2.477 -1.7464,1.795 2.4724,0.403 1.166,2.218 1.147,-2.228 2.47,-0.424 -1.763,-1.78 0.359,-2.48"
         inkscape:export-filename="/Users/amin/Desktop/04.png"
         inkscape:export-xdpi="96"
         inkscape:export-ydpi="96" /><path
         id="path76"
         style="fill:#7c7d7e;fill-opacity:1;fill-rule:nonzero;stroke:none;stroke-width:0.1"
         d="m 115.266,136.623 -2.239,1.126 -2.246,-1.107 0.381,2.477 -1.748,1.795 2.473,0.403 1.166,2.218 1.148,-2.228 2.469,-0.424 -1.762,-1.78 0.358,-2.48"
         inkscape:export-filename="/Users/amin/Desktop/04.png"
         inkscape:export-xdpi="96"
         inkscape:export-ydpi="96" /><path
         id="path78"
         style="fill:#272626;fill-opacity:1;fill-rule:nonzero;stroke:none;stroke-width:0.1"
         d="m 43.3105,138.742 v 2.604 l -2.1601,-2.604 z m 0,-0.949 h -3.3164 l -0.2168,0.827 3.6563,4.324 h 0.9863 v -4.202 h 0.9414 v -0.949 h -0.9414 v -1.476 h -1.1094 v 1.476"
         inkscape:export-filename="/Users/amin/Desktop/04.png"
         inkscape:export-xdpi="96"
         inkscape:export-ydpi="96" /><path
         id="path80"
         style="fill:#272626;fill-opacity:1;fill-rule:nonzero;stroke:none;stroke-width:0.1"
         d="m 46.4805,137.605 h 1.2519 v -1.288 h -1.2519 v 1.288"
         inkscape:export-filename="/Users/amin/Desktop/04.png"
         inkscape:export-xdpi="96"
         inkscape:export-ydpi="96" /><path
         id="path82"
         style="fill:#272626;fill-opacity:1;fill-rule:nonzero;stroke:none;stroke-width:0.1"
         d="m 53.2578,139.588 v 0.019 c 0,1.297 -0.666,2.359 -1.6816,2.359 -1.0157,0 -1.6641,-1.033 -1.6641,-2.34 v -0.019 c 0,-1.297 0.6582,-2.359 1.6836,-2.359 1.0234,0 1.6621,1.043 1.6621,2.34 z m -4.539,0 v 0.019 c 0,1.88 1.1464,3.403 2.8769,3.403 1.7188,0 2.8574,-1.504 2.8574,-3.384 v -0.019 c 0,-1.879 -1.1465,-3.402 -2.8769,-3.402 -1.7285,0 -2.8574,1.503 -2.8574,3.383"
         inkscape:export-filename="/Users/amin/Desktop/04.png"
         inkscape:export-xdpi="96"
         inkscape:export-ydpi="96" /></g><g
       id="g1149"><path
         id="path108"
         style="fill:#f46e16;fill-opacity:1;fill-rule:evenodd;stroke:none;stroke-width:0.1"
         d="M 71.7324,76.5898 66.1211,89.375 H 39.4082 l 5.6133,-12.7852 h 26.7109"
         inkscape:export-filename="/Users/amin/Desktop/03.png"
         inkscape:export-xdpi="96"
         inkscape:export-ydpi="96" /><path
         id="path110"
         style="fill:#272626;fill-opacity:1;fill-rule:evenodd;stroke:none;stroke-width:0.1"
         d="M 127.668,85.266 H 39.707 V 66.773 h 79.842 l 8.119,18.493"
         inkscape:export-filename="/Users/amin/Desktop/03.png"
         inkscape:export-xdpi="96"
         inkscape:export-ydpi="96" /><path
         id="path112"
         style="fill:#fab40a;fill-opacity:1;fill-rule:evenodd;stroke:none;stroke-width:0.1"
         d="M 54.3906,62.6641 H 27.6797 L 39.4063,89.375 H 66.1172 L 54.3906,62.6641"
         inkscape:export-filename="/Users/amin/Desktop/03.png"
         inkscape:export-xdpi="96"
         inkscape:export-ydpi="96" /><path
         id="path114"
         style="fill:#fab40a;fill-opacity:1;fill-rule:nonzero;stroke:none;stroke-width:0.1"
         d="m 71.1699,73.0199 -2.2383,1.127 -2.2461,-1.1071 0.379,2.4762 -1.7481,1.7949 2.4727,0.4039 1.1679,2.2172 1.1485,-2.2269 2.4687,-0.425 -1.7637,-1.7801 0.3594,-2.4801"
         inkscape:export-filename="/Users/amin/Desktop/03.png"
         inkscape:export-xdpi="96"
         inkscape:export-ydpi="96" /><path
         id="path116"
         style="fill:#fab40a;fill-opacity:1;fill-rule:nonzero;stroke:none;stroke-width:0.1"
         d="m 82.1934,73.0199 -2.2364,1.127 -2.248,-1.1071 0.3808,2.4762 -1.748,1.7949 2.4727,0.4039 1.1679,2.2172 1.1465,-2.2269 2.4707,-0.425 -1.7637,-1.7801 0.3575,-2.4801"
         inkscape:export-filename="/Users/amin/Desktop/03.png"
         inkscape:export-xdpi="96"
         inkscape:export-ydpi="96" /><path
         id="path118"
         style="fill:#fab40a;fill-opacity:1;fill-rule:nonzero;stroke:none;stroke-width:0.1"
         d="m 93.2188,73.0199 -2.2383,1.127 -2.2481,-1.1071 0.3809,2.4762 -1.7481,1.7949 2.4727,0.4039 1.168,2.2172 1.1464,-2.2269 2.4707,-0.425 -1.7636,-1.7801 0.3594,-2.4801"
         inkscape:export-filename="/Users/amin/Desktop/03.png"
         inkscape:export-xdpi="96"
         inkscape:export-ydpi="96" /><path
         id="path120"
         style="fill:#7c7d7e;fill-opacity:1;fill-rule:nonzero;stroke:none;stroke-width:0.1"
         d="m 104.242,73.0199 -2.238,1.127 -2.2462,-1.1071 0.3792,2.4762 -1.7464,1.7949 2.4724,0.4039 1.166,2.2172 1.147,-2.2269 2.47,-0.425 -1.763,-1.7801 0.359,-2.4801"
         inkscape:export-filename="/Users/amin/Desktop/03.png"
         inkscape:export-xdpi="96"
         inkscape:export-ydpi="96" /><path
         id="path122"
         style="fill:#7c7d7e;fill-opacity:1;fill-rule:nonzero;stroke:none;stroke-width:0.1"
         d="m 115.266,73.0199 -2.239,1.127 -2.246,-1.1071 0.381,2.4762 -1.748,1.7949 2.473,0.4039 1.166,2.2172 1.148,-2.2269 2.469,-0.425 -1.762,-1.7801 0.358,-2.4801"
         inkscape:export-filename="/Users/amin/Desktop/03.png"
         inkscape:export-xdpi="96"
         inkscape:export-ydpi="96" /><path
         id="path124"
         style="fill:#272626;fill-opacity:1;fill-rule:nonzero;stroke:none;stroke-width:0.1"
         d="m 40.1387,73.7582 0.8086,0.752 c 0.4707,-0.5543 0.9961,-0.8653 1.7304,-0.8653 0.6485,0 1.1368,0.3949 1.1368,0.9973 v 0.0187 c 0,0.6481 -0.5918,1.0153 -1.5137,1.0153 h -0.5352 l -0.1894,0.7226 1.7773,1.8903 h -2.8476 v 1.005 h 4.3515 v -0.864 L 43.0254,76.55 c 0.9961,-0.132 1.9355,-0.6301 1.9355,-1.852 v -0.0191 c 0,-1.2117 -0.9394,-2.0769 -2.3027,-2.0769 -1.1465,0 -1.9648,0.48 -2.5195,1.1562"
         inkscape:export-filename="/Users/amin/Desktop/03.png"
         inkscape:export-xdpi="96"
         inkscape:export-ydpi="96" /><path
         id="path126"
         style="fill:#272626;fill-opacity:1;fill-rule:nonzero;stroke:none;stroke-width:0.1"
         d="m 46.1836,74.002 h 1.2519 v -1.2872 h -1.2519 v 1.2872"
         inkscape:export-filename="/Users/amin/Desktop/03.png"
         inkscape:export-xdpi="96"
         inkscape:export-ydpi="96" /><path
         id="path128"
         style="fill:#272626;fill-opacity:1;fill-rule:nonzero;stroke:none;stroke-width:0.1"
         d="m 52.9629,75.9859 v 0.0192 c 0,1.2969 -0.668,2.359 -1.6816,2.359 -1.0157,0 -1.6641,-1.034 -1.6641,-2.3411 v -0.0179 c 0,-1.2981 0.6582,-2.3602 1.6816,-2.3602 1.0254,0 1.6641,1.043 1.6641,2.341 z m -4.5391,0 v 0.0192 c 0,1.8801 1.1465,3.4019 2.875,3.4019 1.7207,0 2.8575,-1.5039 2.8575,-3.384 v -0.0179 c 0,-1.8801 -1.1465,-3.4031 -2.875,-3.4031 -1.7305,0 -2.8575,1.5039 -2.8575,3.3839"
         inkscape:export-filename="/Users/amin/Desktop/03.png"
         inkscape:export-xdpi="96"
         inkscape:export-ydpi="96" /></g><g
       id="g1136"><path
         id="path154"
         style="fill:#f46e16;fill-opacity:1;fill-rule:evenodd;stroke:none;stroke-width:0.1"
         d="m 196.732,171.994 -5.611,12.785 h -26.713 l 5.613,-12.785 h 26.711"
         inkscape:export-filename="/Users/amin/Desktop/02.png"
         inkscape:export-xdpi="96"
         inkscape:export-ydpi="96" /><path
         id="path156"
         style="fill:#272626;fill-opacity:1;fill-rule:evenodd;stroke:none;stroke-width:0.1"
         d="m 252.668,180.669 h -87.961 v -18.492 h 79.842 l 8.119,18.492"
         inkscape:export-filename="/Users/amin/Desktop/02.png"
         inkscape:export-xdpi="96"
         inkscape:export-ydpi="96" /><path
         id="path158"
         style="fill:#fab40a;fill-opacity:1;fill-rule:evenodd;stroke:none;stroke-width:0.1"
         d="M 179.391,158.068 H 152.68 l 11.726,26.711 h 26.711 l -11.726,-26.711"
         inkscape:export-filename="/Users/amin/Desktop/02.png"
         inkscape:export-xdpi="96"
         inkscape:export-ydpi="96" /><path
         id="path160"
         style="fill:#fab40a;fill-opacity:1;fill-rule:nonzero;stroke:none;stroke-width:0.1"
         d="m 196.17,168.424 -2.238,1.127 -2.246,-1.108 0.378,2.477 -1.748,1.795 2.473,0.404 1.168,2.217 1.148,-2.228 2.469,-0.424 -1.763,-1.78 0.359,-2.48"
         inkscape:export-filename="/Users/amin/Desktop/02.png"
         inkscape:export-xdpi="96"
         inkscape:export-ydpi="96" /><path
         id="path162"
         style="fill:#fab40a;fill-opacity:1;fill-rule:nonzero;stroke:none;stroke-width:0.1"
         d="m 207.193,168.424 -2.236,1.127 -2.248,-1.108 0.381,2.477 -1.748,1.795 2.472,0.404 1.168,2.217 1.147,-2.228 2.471,-0.424 -1.764,-1.78 0.357,-2.48"
         inkscape:export-filename="/Users/amin/Desktop/02.png"
         inkscape:export-xdpi="96"
         inkscape:export-ydpi="96" /><path
         id="path164"
         style="fill:#7c7d7e;fill-opacity:1;fill-rule:nonzero;stroke:none;stroke-width:0.1"
         d="m 218.219,168.424 -2.239,1.127 -2.248,-1.108 0.381,2.477 -1.748,1.795 2.473,0.404 1.168,2.217 1.146,-2.228 2.471,-0.424 -1.764,-1.78 0.36,-2.48"
         inkscape:export-filename="/Users/amin/Desktop/02.png"
         inkscape:export-xdpi="96"
         inkscape:export-ydpi="96" /><path
         id="path166"
         style="fill:#7c7d7e;fill-opacity:1;fill-rule:nonzero;stroke:none;stroke-width:0.1"
         d="m 229.242,168.424 -2.238,1.127 -2.246,-1.108 0.379,2.477 -1.746,1.795 2.472,0.404 1.166,2.217 1.147,-2.228 2.47,-0.424 -1.763,-1.78 0.359,-2.48"
         inkscape:export-filename="/Users/amin/Desktop/02.png"
         inkscape:export-xdpi="96"
         inkscape:export-ydpi="96" /><path
         id="path168"
         style="fill:#7c7d7e;fill-opacity:1;fill-rule:nonzero;stroke:none;stroke-width:0.1"
         d="m 240.266,168.424 -2.239,1.127 -2.246,-1.108 0.381,2.477 -1.748,1.795 2.473,0.404 1.166,2.217 1.148,-2.228 2.469,-0.424 -1.762,-1.78 0.358,-2.48"
         inkscape:export-filename="/Users/amin/Desktop/02.png"
         inkscape:export-xdpi="96"
         inkscape:export-ydpi="96" /><path
         id="path170"
         style="fill:#272626;fill-opacity:1;fill-rule:nonzero;stroke:none;stroke-width:0.1"
         d="m 165.219,169.03 2.265,1.927 c 0.903,0.762 1.231,1.185 1.231,1.777 0,0.648 -0.461,1.024 -1.063,1.024 -0.601,0 -1.013,-0.329 -1.521,-0.987 l -0.818,0.64 c 0.63,0.883 1.25,1.381 2.425,1.381 1.287,0 2.17,-0.79 2.17,-1.964 v -0.019 c 0,-1.034 -0.545,-1.598 -1.709,-2.547 l -1.353,-1.128 h 3.129 v -1.015 h -4.756 v 0.911"
         inkscape:export-filename="/Users/amin/Desktop/02.png"
         inkscape:export-xdpi="96"
         inkscape:export-ydpi="96" /><path
         id="path172"
         style="fill:#272626;fill-opacity:1;fill-rule:nonzero;stroke:none;stroke-width:0.1"
         d="m 171.16,169.406 h 1.252 v -1.287 h -1.252 v 1.287"
         inkscape:export-filename="/Users/amin/Desktop/02.png"
         inkscape:export-xdpi="96"
         inkscape:export-ydpi="96" /><path
         id="path174"
         style="fill:#272626;fill-opacity:1;fill-rule:nonzero;stroke:none;stroke-width:0.1"
         d="m 177.938,171.39 v 0.019 c 0,1.297 -0.667,2.359 -1.682,2.359 -1.016,0 -1.664,-1.034 -1.664,-2.341 v -0.018 c 0,-1.298 0.658,-2.36 1.683,-2.36 1.024,0 1.663,1.043 1.663,2.341 z m -4.54,0 v 0.019 c 0,1.88 1.147,3.402 2.877,3.402 1.719,0 2.858,-1.504 2.858,-3.384 v -0.018 c 0,-1.88 -1.147,-3.403 -2.877,-3.403 -1.729,0 -2.858,1.504 -2.858,3.384"
         inkscape:export-filename="/Users/amin/Desktop/02.png"
         inkscape:export-xdpi="96"
         inkscape:export-ydpi="96" /></g><g
       id="g1162"><path
         id="path200"
         style="fill:#f46e16;fill-opacity:1;fill-rule:evenodd;stroke:none;stroke-width:0.1"
         d="m 196.732,108.392 -5.611,12.784 h -26.713 l 5.613,-12.784 h 26.711"
         inkscape:export-filename="/Users/amin/Desktop/01.png"
         inkscape:export-xdpi="96"
         inkscape:export-ydpi="96" /><path
         id="path202"
         style="fill:#272626;fill-opacity:1;fill-rule:evenodd;stroke:none;stroke-width:0.1"
         d="M 252.668,117.067 H 164.707 V 98.575 h 79.842 l 8.119,18.492"
         inkscape:export-filename="/Users/amin/Desktop/01.png"
         inkscape:export-xdpi="96"
         inkscape:export-ydpi="96" /><path
         id="path204"
         style="fill:#fab40a;fill-opacity:1;fill-rule:evenodd;stroke:none;stroke-width:0.1"
         d="M 179.391,94.4648 H 152.68 l 11.726,26.7112 h 26.711 L 179.391,94.4648"
         inkscape:export-filename="/Users/amin/Desktop/01.png"
         inkscape:export-xdpi="96"
         inkscape:export-ydpi="96" /><path
         id="path206"
         style="fill:#fab40a;fill-opacity:1;fill-rule:nonzero;stroke:none;stroke-width:0.1"
         d="m 196.17,104.821 -2.238,1.127 -2.246,-1.107 0.378,2.476 -1.748,1.796 2.473,0.403 1.168,2.217 1.148,-2.227 2.469,-0.424 -1.763,-1.781 0.359,-2.48"
         inkscape:export-filename="/Users/amin/Desktop/01.png"
         inkscape:export-xdpi="96"
         inkscape:export-ydpi="96" /><path
         id="path208"
         style="fill:#7c7d7e;fill-opacity:1;fill-rule:nonzero;stroke:none;stroke-width:0.1"
         d="m 207.193,104.821 -2.236,1.127 -2.248,-1.107 0.381,2.476 -1.748,1.796 2.472,0.403 1.168,2.217 1.147,-2.227 2.471,-0.424 -1.764,-1.781 0.357,-2.48"
         inkscape:export-filename="/Users/amin/Desktop/01.png"
         inkscape:export-xdpi="96"
         inkscape:export-ydpi="96" /><path
         id="path210"
         style="fill:#7c7d7e;fill-opacity:1;fill-rule:nonzero;stroke:none;stroke-width:0.1"
         d="m 218.219,104.821 -2.239,1.127 -2.248,-1.107 0.381,2.476 -1.748,1.796 2.473,0.403 1.168,2.217 1.146,-2.227 2.471,-0.424 -1.764,-1.781 0.36,-2.48"
         inkscape:export-filename="/Users/amin/Desktop/01.png"
         inkscape:export-xdpi="96"
         inkscape:export-ydpi="96" /><path
         id="path212"
         style="fill:#7c7d7e;fill-opacity:1;fill-rule:nonzero;stroke:none;stroke-width:0.1"
         d="m 229.242,104.821 -2.238,1.127 -2.246,-1.107 0.379,2.476 -1.746,1.796 2.472,0.403 1.166,2.217 1.147,-2.227 2.47,-0.424 -1.763,-1.781 0.359,-2.48"
         inkscape:export-filename="/Users/amin/Desktop/01.png"
         inkscape:export-xdpi="96"
         inkscape:export-ydpi="96" /><path
         id="path214"
         style="fill:#7c7d7e;fill-opacity:1;fill-rule:nonzero;stroke:none;stroke-width:0.1"
         d="m 240.266,104.821 -2.239,1.127 -2.246,-1.107 0.381,2.476 -1.748,1.796 2.473,0.403 1.166,2.217 1.148,-2.227 2.469,-0.424 -1.762,-1.781 0.358,-2.48"
         inkscape:export-filename="/Users/amin/Desktop/01.png"
         inkscape:export-xdpi="96"
         inkscape:export-ydpi="96" /><path
         id="path216"
         style="fill:#272626;fill-opacity:1;fill-rule:nonzero;stroke:none;stroke-width:0.1"
         d="m 167.451,109.968 -1.183,-0.329 -0.245,0.94 1.768,0.564 h 0.807 v -6.627 h -1.147 v 5.452"
         inkscape:export-filename="/Users/amin/Desktop/01.png"
         inkscape:export-xdpi="96"
         inkscape:export-ydpi="96" /><path
         id="path218"
         style="fill:#272626;fill-opacity:1;fill-rule:nonzero;stroke:none;stroke-width:0.1"
         d="m 170.141,105.804 h 1.252 v -1.288 h -1.252 v 1.288"
         inkscape:export-filename="/Users/amin/Desktop/01.png"
         inkscape:export-xdpi="96"
         inkscape:export-ydpi="96" /><path
         id="path220"
         style="fill:#272626;fill-opacity:1;fill-rule:nonzero;stroke:none;stroke-width:0.1"
         d="m 176.918,107.787 v 0.019 c 0,1.297 -0.666,2.359 -1.682,2.359 -1.015,0 -1.664,-1.034 -1.664,-2.34 v -0.019 c 0,-1.297 0.658,-2.359 1.684,-2.359 1.023,0 1.662,1.043 1.662,2.34 z m -4.539,0 v 0.019 c 0,1.88 1.146,3.402 2.877,3.402 1.719,0 2.857,-1.503 2.857,-3.383 v -0.019 c 0,-1.88 -1.146,-3.403 -2.877,-3.403 -1.728,0 -2.857,1.504 -2.857,3.384"
         inkscape:export-filename="/Users/amin/Desktop/01.png"
         inkscape:export-xdpi="96"
         inkscape:export-ydpi="96" /></g><path
       inkscape:export-ydpi="96"
       inkscape:export-xdpi="96"
       inkscape:export-filename="/Users/amin/Desktop/00.png"
       d="m 196.732,44.7891 -5.611,12.7847 h -26.713 l 5.613,-12.7847 h 26.711"
       style="fill:#f46e16;fill-opacity:1;fill-rule:evenodd;stroke:none;stroke-width:0.1"
       id="path246" /><path
       inkscape:export-ydpi="96"
       inkscape:export-xdpi="96"
       inkscape:export-filename="/Users/amin/Desktop/00.png"
       d="M 252.668,53.4641 H 164.707 V 34.9719 h 79.842 l 8.119,18.4922"
       style="fill:#272626;fill-opacity:1;fill-rule:evenodd;stroke:none;stroke-width:0.1"
       id="path248" /><path
       inkscape:export-ydpi="96"
       inkscape:export-xdpi="96"
       inkscape:export-filename="/Users/amin/Desktop/00.png"
       d="M 179.391,30.8629 H 152.68 l 11.726,26.7109 h 26.711 L 179.391,30.8629"
       style="fill:#fab40a;fill-opacity:1;fill-rule:evenodd;stroke:none;stroke-width:0.1"
       id="path250" /><path
       inkscape:export-ydpi="96"
       inkscape:export-xdpi="96"
       inkscape:export-filename="/Users/amin/Desktop/00.png"
       d="m 196.17,41.2191 -2.238,1.127 -2.246,-1.1082 0.378,2.4769 -1.748,1.7954 2.473,0.4039 1.168,2.2168 1.148,-2.2278 2.469,-0.4242 -1.763,-1.7801 0.359,-2.4797"
       style="fill:#7c7d7e;fill-opacity:1;fill-rule:nonzero;stroke:none;stroke-width:0.1"
       id="path252" /><path
       inkscape:export-ydpi="96"
       inkscape:export-xdpi="96"
       inkscape:export-filename="/Users/amin/Desktop/00.png"
       d="m 207.193,41.2191 -2.236,1.127 -2.248,-1.1082 0.381,2.4769 -1.748,1.7954 2.472,0.4039 1.168,2.2168 1.147,-2.2278 2.471,-0.4242 -1.764,-1.7801 0.357,-2.4797"
       style="fill:#7c7d7e;fill-opacity:1;fill-rule:nonzero;stroke:none;stroke-width:0.1"
       id="path254" /><path
       inkscape:export-ydpi="96"
       inkscape:export-xdpi="96"
       inkscape:export-filename="/Users/amin/Desktop/00.png"
       d="m 218.219,41.2191 -2.239,1.127 -2.248,-1.1082 0.381,2.4769 -1.748,1.7954 2.473,0.4039 1.168,2.2168 1.146,-2.2278 2.471,-0.4242 -1.764,-1.7801 0.36,-2.4797"
       style="fill:#7c7d7e;fill-opacity:1;fill-rule:nonzero;stroke:none;stroke-width:0.1"
       id="path256" /><path
       inkscape:export-ydpi="96"
       inkscape:export-xdpi="96"
       inkscape:export-filename="/Users/amin/Desktop/00.png"
       d="m 229.242,41.2191 -2.238,1.127 -2.246,-1.1082 0.379,2.4769 -1.746,1.7954 2.472,0.4039 1.166,2.2168 1.147,-2.2278 2.47,-0.4242 -1.763,-1.7801 0.359,-2.4797"
       style="fill:#7c7d7e;fill-opacity:1;fill-rule:nonzero;stroke:none;stroke-width:0.1"
       id="path258" /><path
       inkscape:export-ydpi="96"
       inkscape:export-xdpi="96"
       inkscape:export-filename="/Users/amin/Desktop/00.png"
       d="m 240.266,41.2191 -2.239,1.127 -2.246,-1.1082 0.381,2.4769 -1.748,1.7954 2.473,0.4039 1.166,2.2168 1.148,-2.2278 2.469,-0.4242 -1.762,-1.7801 0.358,-2.4797"
       style="fill:#7c7d7e;fill-opacity:1;fill-rule:nonzero;stroke:none;stroke-width:0.1"
       id="path260" /><path
       inkscape:export-ydpi="96"
       inkscape:export-xdpi="96"
       inkscape:export-filename="/Users/amin/Desktop/00.png"
       d="m 169.406,44.1852 v 0.0187 c 0,1.2961 -0.668,2.3582 -1.681,2.3582 -1.016,0 -1.664,-1.0332 -1.664,-2.3402 v -0.018 c 0,-1.298 0.658,-2.3598 1.681,-2.3598 1.026,0 1.664,1.043 1.664,2.3411 z m -4.539,0 v 0.0187 c 0,1.8793 1.147,3.402 2.875,3.402 1.721,0 2.858,-1.5039 2.858,-3.384 v -0.018 c 0,-1.8801 -1.147,-3.4027 -2.875,-3.4027 -1.731,0 -2.858,1.5039 -2.858,3.384"
       style="fill:#272626;fill-opacity:1;fill-rule:nonzero;stroke:none;stroke-width:0.1"
       id="path262" /><path
       inkscape:export-ydpi="96"
       inkscape:export-xdpi="96"
       inkscape:export-filename="/Users/amin/Desktop/00.png"
       d="m 171.588,42.2012 h 1.252 v -1.2871 h -1.252 v 1.2871"
       style="fill:#272626;fill-opacity:1;fill-rule:nonzero;stroke:none;stroke-width:0.1"
       id="path264" /><path
       inkscape:export-ydpi="96"
       inkscape:export-xdpi="96"
       inkscape:export-filename="/Users/amin/Desktop/00.png"
       d="m 178.367,44.1852 v 0.0187 c 0,1.2961 -0.668,2.3582 -1.681,2.3582 -1.016,0 -1.665,-1.0332 -1.665,-2.3402 v -0.018 c 0,-1.298 0.659,-2.3598 1.682,-2.3598 1.026,0 1.664,1.043 1.664,2.3411 z m -4.539,0 v 0.0187 c 0,1.8793 1.147,3.402 2.875,3.402 1.721,0 2.858,-1.5039 2.858,-3.384 v -0.018 c 0,-1.8801 -1.147,-3.4027 -2.875,-3.4027 -1.731,0 -2.858,1.5039 -2.858,3.384"
       style="fill:#272626;fill-opacity:1;fill-rule:nonzero;stroke:none;stroke-width:0.1"
       id="path266" /></g></svg>
